<svg width="20" height="22" viewBox="0 0 20 22" fill="none" xmlns="http://www.w3.org/2000/svg">
<path opacity="0.5" d="M14.2356 3.11824C16.4106 3.13035 17.5885 3.2268 18.3569 3.99518C19.2356 4.87386 19.2356 6.28807 19.2356 9.1165V15.1165C19.2356 17.9449 19.2356 19.3591 18.3569 20.2378C17.4782 21.1165 16.064 21.1165 13.2356 21.1165H7.2356C4.40717 21.1165 2.99295 21.1165 2.11428 20.2378C1.2356 19.3591 1.2356 17.9449 1.2356 15.1165V9.1165C1.2356 6.28807 1.2356 4.87386 2.11428 3.99518C2.88266 3.2268 4.06057 3.13035 6.2356 3.11824" stroke="#1BC469"/>
<path d="M7.7356 1.61824H12.7356V0.618239H7.7356V1.61824ZM13.7356 2.61824V3.61824H14.7356V2.61824H13.7356ZM12.7356 4.61824H7.7356V5.61824H12.7356V4.61824ZM6.7356 3.61824V2.61824H5.7356V3.61824H6.7356ZM7.7356 4.61824C7.18331 4.61824 6.7356 4.17052 6.7356 3.61824H5.7356C5.7356 4.72281 6.63103 5.61824 7.7356 5.61824V4.61824ZM13.7356 3.61824C13.7356 4.17052 13.2879 4.61824 12.7356 4.61824V5.61824C13.8402 5.61824 14.7356 4.72281 14.7356 3.61824H13.7356ZM12.7356 1.61824C13.2879 1.61824 13.7356 2.06595 13.7356 2.61824H14.7356C14.7356 1.51367 13.8402 0.618239 12.7356 0.618239V1.61824ZM7.7356 0.618239C6.63103 0.618239 5.7356 1.51367 5.7356 2.61824H6.7356C6.7356 2.06595 7.18331 1.61824 7.7356 1.61824V0.618239Z" fill="#1BC469"/>
<path d="M13.2356 12.6183C13.5117 12.6183 13.7356 12.3944 13.7356 12.1183C13.7356 11.8421 13.5117 11.6183 13.2356 11.6183V12.6183ZM7.2356 11.6183C6.95945 11.6183 6.7356 11.8421 6.7356 12.1183C6.7356 12.3944 6.95945 12.6183 7.2356 12.6183L7.2356 11.6183ZM10.7356 9.11824C10.7356 8.8421 10.5117 8.61824 10.2356 8.61824C9.95945 8.61824 9.7356 8.8421 9.7356 9.11824L10.7356 9.11824ZM9.73559 15.1182C9.73559 15.3944 9.95945 15.6182 10.2356 15.6182C10.5117 15.6182 10.7356 15.3944 10.7356 15.1182H9.73559ZM13.2356 11.6183L10.2356 11.6183V12.6183L13.2356 12.6183V11.6183ZM10.2356 11.6183L7.2356 11.6183L7.2356 12.6183L10.2356 12.6183V11.6183ZM9.7356 9.11824L9.73559 12.1183H10.7356L10.7356 9.11824L9.7356 9.11824ZM9.73559 12.1183L9.73559 15.1182H10.7356L10.7356 12.1183H9.73559Z" fill="#1BC469"/>
</svg>
