<svg width="17" height="17" viewBox="0 0 17 17" fill="none" xmlns="http://www.w3.org/2000/svg">
<path d="M1.08203 8.0179C1.08203 5.11695 1.08203 3.66647 1.96071 2.76526C2.83939 1.86405 4.2536 1.86405 7.08203 1.86405H10.082C12.9105 1.86405 14.3247 1.86405 15.2034 2.76526C16.082 3.66647 16.082 5.11695 16.082 8.0179V9.55636C16.082 12.4573 16.082 13.9078 15.2034 14.809C14.3247 15.7102 12.9105 15.7102 10.082 15.7102H7.08203C4.2536 15.7102 2.83939 15.7102 1.96071 14.809C1.08203 13.9078 1.08203 12.4573 1.08203 9.55636V8.0179Z" stroke="#1C274C" stroke-width="0.8"/>
<path d="M13.0817 11.4949C13.3026 11.4949 13.4817 11.3158 13.4817 11.0949C13.4817 10.874 13.3026 10.6949 13.0817 10.6949V11.4949ZM10.0817 10.6949C9.86075 10.6949 9.68167 10.874 9.68167 11.0949C9.68167 11.3158 9.86075 11.4949 10.0817 11.4949L10.0817 10.6949ZM11.9817 9.55643C11.9817 9.33551 11.8026 9.15643 11.5817 9.15643C11.3608 9.15643 11.1817 9.33551 11.1817 9.55643L11.9817 9.55643ZM11.1817 12.6334C11.1817 12.8543 11.3608 13.0334 11.5817 13.0334C11.8026 13.0334 11.9817 12.8543 11.9817 12.6334H11.1817ZM13.0817 10.6949L11.5817 10.6949V11.4949L13.0817 11.4949V10.6949ZM11.5817 10.6949L10.0817 10.6949L10.0817 11.4949L11.5817 11.4949L11.5817 10.6949ZM11.1817 9.55643L11.1817 11.0949H11.9817L11.9817 9.55643L11.1817 9.55643ZM11.1817 11.0949L11.1817 12.6334H11.9817V11.0949H11.1817Z" fill="#1C274C"/>
<path opacity="0.5" d="M4.83203 1.86399V0.710144" stroke="#1C274C" stroke-width="0.8" stroke-linecap="round"/>
<path opacity="0.5" d="M12.332 1.86399V0.710144" stroke="#1C274C" stroke-width="0.8" stroke-linecap="round"/>
<path opacity="0.5" d="M1.08203 5.70995H16.082" stroke="#1C274C" stroke-width="0.8" stroke-linecap="round"/>
</svg>
