<svg width="12" height="21" viewBox="0 0 12 21" fill="none" xmlns="http://www.w3.org/2000/svg">
<path d="M7.36979 8.10493C7.11814 7.75206 7.11814 7.1895 7.11814 6.06438V5.77025C7.11814 2.65078 7.11814 1.09105 6.50429 0.822314C5.89043 0.553578 5.23249 1.82527 3.91661 4.36866L1.8809 8.30338C1.02681 9.95419 0.599771 10.7796 0.835078 11.4286C0.838974 11.4393 0.842986 11.45 0.847114 11.4606C1.09638 12.0997 1.83393 12.0997 3.30904 12.0997C4.12876 12.0997 4.53862 12.0997 4.79571 12.4451" stroke="#ED1C24"/>
<path opacity="0.5" d="M7.36937 8.10549L7.38268 8.12377C7.63977 8.46918 8.04962 8.46918 8.86933 8.46918C10.3444 8.46918 11.082 8.46918 11.3313 9.10829C11.3354 9.11887 11.3394 9.12953 11.3433 9.14028C11.5786 9.78928 11.1516 10.6147 10.2975 12.2655L8.26175 16.2002C6.94584 18.7436 6.28789 20.0153 5.67404 19.7465C5.06019 19.4778 5.0602 17.918 5.06024 14.7985L5.06024 14.5045C5.06025 13.3794 5.06026 12.8168 4.8086 12.4639L4.79529 12.4457" stroke="#ED1C24"/>
</svg>
