<svg width="27" height="27" viewBox="0 0 27 27" fill="none" xmlns="http://www.w3.org/2000/svg">
<path d="M0.0891113 2.2851C0.0891113 1.18053 0.984542 0.285095 2.08911 0.285095H24.0891C25.1937 0.285095 26.0891 1.18053 26.0891 2.2851V24.2851C26.0891 25.3897 25.1937 26.2851 24.0891 26.2851H2.08911C0.984542 26.2851 0.0891113 25.3897 0.0891113 24.2851V2.2851Z" fill="#F2F2F2"/>
<path d="M14.3698 11.1049C14.1181 10.7521 14.1181 10.1895 14.1181 9.06438V8.77025C14.1181 5.65078 14.1181 4.09105 13.5043 3.82231C12.8904 3.55358 12.2325 4.82527 10.9166 7.36866L8.8809 11.3034C8.02681 12.9542 7.59977 13.7796 7.83508 14.4286C7.83897 14.4393 7.84299 14.45 7.84711 14.4606C8.09638 15.0997 8.83393 15.0997 10.309 15.0997C11.1288 15.0997 11.5386 15.0997 11.7957 15.4451" stroke="#ED1C24"/>
<path opacity="0.5" d="M14.3694 11.1055L14.3827 11.1238C14.6398 11.4692 15.0496 11.4692 15.8693 11.4692C17.3444 11.4692 18.082 11.4692 18.3313 12.1083C18.3354 12.1189 18.3394 12.1295 18.3433 12.1403C18.5786 12.7893 18.1516 13.6147 17.2975 15.2655L15.2618 19.2002C13.9458 21.7436 13.2879 23.0153 12.674 22.7465C12.0602 22.4778 12.0602 20.918 12.0602 17.7985L12.0602 17.5045C12.0603 16.3794 12.0603 15.8168 11.8086 15.4639L11.7953 15.4457" stroke="#ED1C24"/>
</svg>
