<svg width="22" height="23" viewBox="0 0 22 23" fill="none" xmlns="http://www.w3.org/2000/svg">
<path opacity="0.5" d="M21.2279 11.5402C21.2279 13.518 20.6414 15.4514 19.5426 17.0959C18.4437 18.7404 16.882 20.0221 15.0547 20.779C13.2274 21.5359 11.2168 21.7339 9.27696 21.3481C7.33715 20.9622 5.55532 20.0098 4.15679 18.6113C2.75827 17.2128 1.80586 15.4309 1.42001 13.4911C1.03415 11.5513 1.23219 9.54065 1.98906 7.71339C2.74594 5.88613 4.02767 4.32434 5.67216 3.22553C7.31665 2.12671 9.25005 1.54022 11.2279 1.54022" stroke="#1C274C" stroke-width="1.5" stroke-linecap="round"/>
<path d="M13.7279 1.85507C17.2419 2.75952 20.0084 5.52601 20.9128 9.04003" stroke="#1C274C" stroke-width="1.5" stroke-linecap="round"/>
</svg>
