<svg width="21" height="21" viewBox="0 0 21 21" fill="none" xmlns="http://www.w3.org/2000/svg">
<path opacity="0.5" d="M1.55011 10.3664C1.55011 6.12375 1.55011 4.00243 2.86813 2.68441C4.18615 1.36639 6.30747 1.36639 10.5501 1.36639C14.7928 1.36639 16.9141 1.36639 18.2321 2.68441C19.5501 4.00243 19.5501 6.12375 19.5501 10.3664C19.5501 14.609 19.5501 16.7304 18.2321 18.0484C16.9141 19.3664 14.7928 19.3664 10.5501 19.3664C6.30747 19.3664 4.18615 19.3664 2.86813 18.0484C1.55011 16.7304 1.55011 14.609 1.55011 10.3664Z" stroke="#1C274C" stroke-width="1.5"/>
<path d="M13.3304 8.64674C13.6233 8.35385 13.6233 7.87898 13.3304 7.58608C13.0375 7.29319 12.5627 7.29319 12.2698 7.58608L13.3304 8.64674ZM7.76978 12.0861C7.47689 12.379 7.47689 12.8538 7.76978 13.1467C8.06267 13.4396 8.53755 13.4396 8.83044 13.1467L7.76978 12.0861ZM8.83042 7.58606C8.53753 7.29317 8.06265 7.29317 7.76976 7.58606C7.47687 7.87896 7.47687 8.35383 7.76976 8.64672L8.83042 7.58606ZM12.2697 13.1467C12.5626 13.4396 13.0375 13.4396 13.3304 13.1467C13.6233 12.8538 13.6233 12.3789 13.3304 12.086L12.2697 13.1467ZM12.2698 7.58608L7.76978 12.0861L8.83044 13.1467L13.3304 8.64674L12.2698 7.58608ZM7.76976 8.64672L12.2697 13.1467L13.3304 12.086L8.83042 7.58606L7.76976 8.64672Z" fill="#1C274C"/>
</svg>
