<svg width="17" height="17" viewBox="0 0 17 17" fill="none" xmlns="http://www.w3.org/2000/svg">
<path d="M8.14636 12.0939C8.14636 12.3701 8.37022 12.5939 8.64636 12.5939C8.9225 12.5939 9.14636 12.3701 9.14636 12.0939H8.14636ZM11.1464 6.65643C11.1464 6.93258 11.3702 7.15643 11.6464 7.15643C11.9225 7.15643 12.1464 6.93258 12.1464 6.65643H11.1464ZM5.14636 6.65643C5.14636 6.93258 5.37022 7.15643 5.64636 7.15643C5.9225 7.15643 6.14636 6.93258 6.14636 6.65643H5.14636ZM11.4267 4.83801L11.7983 4.50353L11.7983 4.50353L11.4267 4.83801ZM6.77136 11.5939C6.49522 11.5939 6.27136 11.8178 6.27136 12.0939C6.27136 12.3701 6.49522 12.5939 6.77136 12.5939V11.5939ZM10.8964 12.5939C11.1725 12.5939 11.3964 12.3701 11.3964 12.0939C11.3964 11.8178 11.1725 11.5939 10.8964 11.5939V12.5939ZM7.14636 5.09393H8.64636V4.09393H7.14636V5.09393ZM8.64636 5.09393H10.1464V4.09393H8.64636V5.09393ZM9.14636 12.0939V4.59393H8.14636V12.0939H9.14636ZM11.1464 6.2606V6.65643H12.1464V6.2606H11.1464ZM5.14636 6.2606V6.65643H6.14636V6.2606H5.14636ZM10.1464 5.09393C10.5156 5.09393 10.7367 5.09524 10.8954 5.11896C11.034 5.13965 11.0506 5.16759 11.055 5.17249L11.7983 4.50353C11.5831 4.26436 11.3131 4.17026 11.0432 4.12993C10.7935 4.09263 10.4843 4.09393 10.1464 4.09393V5.09393ZM12.1464 6.2606C12.1464 5.88052 12.1472 5.55013 12.1153 5.28614C12.0822 5.01271 12.0068 4.73516 11.7983 4.50353L11.055 5.17249C11.0662 5.18494 11.1007 5.22585 11.1225 5.40627C11.1455 5.59614 11.1464 5.85501 11.1464 6.2606H12.1464ZM7.14636 4.09393C6.80847 4.09393 6.49924 4.09263 6.24954 4.12993C5.97958 4.17026 5.70964 4.26436 5.49439 4.50353L6.23768 5.17249C6.2421 5.16759 6.25877 5.13965 6.39728 5.11896C6.55605 5.09524 6.77715 5.09393 7.14636 5.09393V4.09393ZM6.14636 6.2606C6.14636 5.85501 6.14723 5.59614 6.1702 5.40627C6.19203 5.22585 6.22647 5.18494 6.23768 5.17249L5.49439 4.50353C5.28592 4.73516 5.21053 5.01271 5.17744 5.28614C5.1455 5.55013 5.14636 5.88052 5.14636 6.2606H6.14636ZM6.77136 12.5939H10.8964V11.5939H6.77136V12.5939Z" fill="#1C274C"/>
<path opacity="0.5" d="M1.14636 8.34393C1.14636 4.8084 1.14636 3.04063 2.24471 1.94228C3.34306 0.843933 5.11083 0.843933 8.64636 0.843933C12.1819 0.843933 13.9497 0.843933 15.048 1.94228C16.1464 3.04063 16.1464 4.8084 16.1464 8.34393C16.1464 11.8795 16.1464 13.6472 15.048 14.7456C13.9497 15.8439 12.1819 15.8439 8.64636 15.8439C5.11083 15.8439 3.34306 15.8439 2.24471 14.7456C1.14636 13.6472 1.14636 11.8795 1.14636 8.34393Z" stroke="#1C274C"/>
</svg>
