<svg width="30" height="30" viewBox="0 0 30 30" fill="none" xmlns="http://www.w3.org/2000/svg">
<rect width="30" height="30" rx="5" fill="#3174A5"/>
<path d="M6.6582 24.6416H22.6582" stroke="white" stroke-linecap="round"/>
<path d="M17.2878 5.56302L16.5463 6.30453L9.72926 13.1215C9.26753 13.5833 9.03667 13.8141 8.83812 14.0687C8.60391 14.3689 8.40311 14.6938 8.23928 15.0376C8.10039 15.329 7.99714 15.6388 7.79065 16.2583L6.91565 18.8833L6.70176 19.5249C6.60015 19.8298 6.67949 20.1659 6.90671 20.3931C7.13393 20.6203 7.47003 20.6997 7.77488 20.598L8.41654 20.3842L11.0415 19.5092L11.0416 19.5091C11.661 19.3027 11.9708 19.1994 12.2622 19.0605C12.606 18.8967 12.9309 18.6959 13.2311 18.4617C13.4857 18.2631 13.7166 18.0323 14.1783 17.5706L14.1783 17.5705L20.9953 10.7535L21.7368 10.012C22.9653 8.78348 22.9653 6.79159 21.7368 5.56302C20.5082 4.33446 18.5163 4.33446 17.2878 5.56302Z" stroke="white"/>
<path d="M16.5461 6.30469C16.5461 6.30469 16.6388 7.88038 18.0291 9.2707C19.4195 10.661 20.9952 10.7537 20.9952 10.7537M8.41642 20.3843L6.91553 18.8834" stroke="white"/>
</svg>
