<svg width="23" height="23" viewBox="0 0 23 23" fill="none" xmlns="http://www.w3.org/2000/svg">
<path d="M21.4496 11.4611C21.4496 16.984 16.9724 21.4611 11.4496 21.4611C5.92674 21.4611 1.44958 16.984 1.44958 11.4611C1.44958 5.93827 5.92674 1.46112 11.4496 1.46112C16.9724 1.46112 21.4496 5.93827 21.4496 11.4611Z" fill="#1C274C" stroke="#ED1C24" stroke-width="2" stroke-linecap="round"/>
<path d="M12.1996 8.46112C12.1996 8.04691 11.8638 7.71112 11.4496 7.71112C11.0354 7.71112 10.6996 8.04691 10.6996 8.46112L10.6996 10.7111H8.44958C8.03537 10.7111 7.69958 11.0469 7.69958 11.4611C7.69958 11.8754 8.03537 12.2111 8.44958 12.2111H10.6996V14.4611C10.6996 14.8753 11.0354 15.2111 11.4496 15.2111C11.8638 15.2111 12.1996 14.8753 12.1996 14.4611L12.1996 12.2111H14.4496C14.8638 12.2111 15.1996 11.8754 15.1996 11.4611C15.1996 11.0469 14.8638 10.7111 14.4496 10.7111H12.1996V8.46112Z" fill="white"/>
</svg>
