<svg width="22" height="22" viewBox="0 0 22 22" fill="none" xmlns="http://www.w3.org/2000/svg">
<path d="M9.39058 19.9107L8.71855 20.2437L9.39058 19.9107ZM1.21002 3.40097L0.537996 3.73396H0.537996L1.21002 3.40097ZM10.2163 4.24653L10.5411 3.57052L10.5411 3.57052L10.2163 4.24653ZM3.65662 1.0945L3.98145 0.41849L3.98145 0.41849L3.65662 1.0945ZM11.0267 5.18039C11.4409 5.18039 11.7767 4.8446 11.7767 4.43039C11.7767 4.01618 11.4409 3.68039 11.0267 3.68039V5.18039ZM11.0267 21.6535C11.4409 21.6535 11.7767 21.3177 11.7767 20.9035C11.7767 20.4893 11.4409 20.1535 11.0267 20.1535V21.6535ZM10.0626 19.5777L1.88205 3.06798L0.537996 3.73396L8.71855 20.2437L10.0626 19.5777ZM10.5411 3.57052L3.98145 0.41849L3.33178 1.7705L9.89147 4.92253L10.5411 3.57052ZM1.88205 3.06798C1.67672 2.6536 1.78794 2.24095 2.09162 1.95467C2.39876 1.66512 2.86624 1.5468 3.33178 1.7705L3.98145 0.41849C2.90504 -0.0987386 1.77863 0.188264 1.06267 0.863219C0.343239 1.54145 0.00213909 2.65251 0.537996 3.73396L1.88205 3.06798ZM11.0267 3.68039C10.8591 3.68039 10.6927 3.64334 10.5411 3.57052L9.89146 4.92253C10.2501 5.09486 10.6391 5.18039 11.0267 5.18039V3.68039ZM8.71855 20.2437C9.18901 21.1931 10.1253 21.6535 11.0267 21.6535V20.1535C10.6199 20.1535 10.2481 19.952 10.0626 19.5777L8.71855 20.2437Z" fill="#1C274C"/>
<path opacity="0.5" d="M12.6629 19.9107L13.3349 20.2437L12.6629 19.9107ZM20.8434 3.40097L20.1714 3.06798L20.8434 3.40097ZM18.3969 1.0945L18.7217 1.7705L18.7217 1.7705L18.3969 1.0945ZM11.8372 4.24653L11.5123 3.57052L11.5123 3.57052L11.8372 4.24653ZM13.3349 20.2437L21.5155 3.73396L20.1714 3.06798L11.9909 19.5777L13.3349 20.2437ZM18.072 0.418491L11.5123 3.57052L12.162 4.92253L18.7217 1.7705L18.072 0.418491ZM21.5155 3.73396C22.0513 2.65251 21.7102 1.54145 20.9908 0.86322C20.2748 0.188264 19.1484 -0.098739 18.072 0.418491L18.7217 1.7705C19.1872 1.5468 19.6547 1.66512 19.9619 1.95467C20.2655 2.24095 20.3767 2.65359 20.1714 3.06798L21.5155 3.73396ZM11.5123 3.57052C11.3608 3.64334 11.1944 3.68039 11.0267 3.68039V5.18039C11.4144 5.18039 11.8034 5.09486 12.162 4.92253L11.5123 3.57052ZM11.0267 21.6535C11.9281 21.6535 12.8645 21.1931 13.3349 20.2437L11.9909 19.5777C11.8054 19.952 11.4335 20.1535 11.0267 20.1535V21.6535Z" fill="#1C274C"/>
</svg>
