<svg width="30" height="31" viewBox="0 0 30 31" fill="none" xmlns="http://www.w3.org/2000/svg">
<g filter="url(#filter0_d_204_1026)">
<path d="M13.5917 20.5474L12.9197 20.8804L13.5917 20.5474ZM5.41115 4.03769L4.73912 4.37067H4.73912L5.41115 4.03769ZM14.4174 4.88325L14.7423 4.20724L14.7423 4.20724L14.4174 4.88325ZM7.85774 1.73122L8.18257 1.05521L8.18257 1.05521L7.85774 1.73122ZM15.2279 5.81711C15.6421 5.81711 15.9779 5.48132 15.9779 5.06711C15.9779 4.6529 15.6421 4.31711 15.2279 4.31711V5.81711ZM15.2279 22.2902C15.6421 22.2902 15.9779 21.9544 15.9779 21.5402C15.9779 21.126 15.6421 20.7902 15.2279 20.7902V22.2902ZM14.2637 20.2144L6.08317 3.7047L4.73912 4.37067L12.9197 20.8804L14.2637 20.2144ZM14.7423 4.20724L8.18257 1.05521L7.53291 2.40722L14.0926 5.55925L14.7423 4.20724ZM6.08317 3.7047C5.87785 3.29031 5.98907 2.87767 6.29274 2.59139C6.59989 2.30184 7.06737 2.18352 7.53291 2.40722L8.18257 1.05521C7.10617 0.53798 5.97976 0.824983 5.2638 1.49994C4.54437 2.17817 4.20327 3.28923 4.73912 4.37067L6.08317 3.7047ZM15.2279 4.31711C15.0602 4.31711 14.8938 4.28006 14.7423 4.20724L14.0926 5.55925C14.4512 5.73158 14.8402 5.81711 15.2279 5.81711V4.31711ZM12.9197 20.8804C13.3901 21.8299 14.3265 22.2902 15.2279 22.2902V20.7902C14.8211 20.7902 14.4492 20.5887 14.2637 20.2144L12.9197 20.8804Z" fill="#1C274C"/>
<path opacity="0.5" d="M16.864 20.5474L17.536 20.8804L16.864 20.5474ZM25.0446 4.03769L24.3725 3.7047L25.0446 4.03769ZM22.598 1.73122L22.9228 2.40722L22.9228 2.40722L22.598 1.73122ZM16.0383 4.88325L15.7135 4.20724L15.7135 4.20724L16.0383 4.88325ZM17.536 20.8804L25.7166 4.37068L24.3725 3.7047L16.192 20.2144L17.536 20.8804ZM22.2731 1.05521L15.7135 4.20724L16.3631 5.55925L22.9228 2.40722L22.2731 1.05521ZM25.7166 4.37068C26.2525 3.28923 25.9114 2.17817 25.1919 1.49994C24.476 0.824982 23.3496 0.53798 22.2731 1.05521L22.9228 2.40722C23.3884 2.18352 23.8558 2.30184 24.163 2.59139C24.4666 2.87767 24.5779 3.29031 24.3725 3.7047L25.7166 4.37068ZM15.7135 4.20724C15.5619 4.28006 15.3955 4.31711 15.2279 4.31711V5.81711C15.6155 5.81711 16.0045 5.73158 16.3631 5.55925L15.7135 4.20724ZM15.2279 22.2902C16.1293 22.2902 17.0656 21.8299 17.536 20.8804L16.192 20.2144C16.0065 20.5887 15.6347 20.7902 15.2279 20.7902V22.2902Z" fill="#1C274C"/>
</g>
<defs>
<filter id="filter0_d_204_1026" x="0.477066" y="0.789795" width="29.5016" height="29.5004" filterUnits="userSpaceOnUse" color-interpolation-filters="sRGB">
<feFlood flood-opacity="0" result="BackgroundImageFix"/>
<feColorMatrix in="SourceAlpha" type="matrix" values="0 0 0 0 0 0 0 0 0 0 0 0 0 0 0 0 0 0 127 0" result="hardAlpha"/>
<feOffset dy="4"/>
<feGaussianBlur stdDeviation="2"/>
<feComposite in2="hardAlpha" operator="out"/>
<feColorMatrix type="matrix" values="0 0 0 0 0 0 0 0 0 0 0 0 0 0 0 0 0 0 0.25 0"/>
<feBlend mode="normal" in2="BackgroundImageFix" result="effect1_dropShadow_204_1026"/>
<feBlend mode="normal" in="SourceGraphic" in2="effect1_dropShadow_204_1026" result="shape"/>
</filter>
</defs>
</svg>
