<svg width="20" height="22" viewBox="0 0 20 22" fill="none" xmlns="http://www.w3.org/2000/svg">
<path opacity="0.5" d="M14.2356 3.11824C16.4106 3.13035 17.5885 3.2268 18.3569 3.99518C19.2356 4.87386 19.2356 6.28807 19.2356 9.1165V15.1165C19.2356 17.9449 19.2356 19.3591 18.3569 20.2378C17.4782 21.1165 16.064 21.1165 13.2356 21.1165H7.2356C4.40717 21.1165 2.99295 21.1165 2.11428 20.2378C1.2356 19.3591 1.2356 17.9449 1.2356 15.1165V9.1165C1.2356 6.28807 1.2356 4.87386 2.11428 3.99518C2.88266 3.2268 4.06057 3.13035 6.2356 3.11824" stroke="#ED1C24"/>
<path d="M7.7356 1.61824H12.7356V0.61824H7.7356V1.61824ZM13.7356 2.61824V3.61824H14.7356V2.61824H13.7356ZM12.7356 4.61824H7.7356V5.61824H12.7356V4.61824ZM6.7356 3.61824V2.61824H5.7356V3.61824H6.7356ZM7.7356 4.61824C7.18331 4.61824 6.7356 4.17053 6.7356 3.61824H5.7356C5.7356 4.72281 6.63103 5.61824 7.7356 5.61824V4.61824ZM13.7356 3.61824C13.7356 4.17053 13.2879 4.61824 12.7356 4.61824V5.61824C13.8402 5.61824 14.7356 4.72281 14.7356 3.61824H13.7356ZM12.7356 1.61824C13.2879 1.61824 13.7356 2.06596 13.7356 2.61824H14.7356C14.7356 1.51367 13.8402 0.61824 12.7356 0.61824V1.61824ZM7.7356 0.61824C6.63103 0.61824 5.7356 1.51367 5.7356 2.61824H6.7356C6.7356 2.06596 7.18331 1.61824 7.7356 1.61824V0.61824Z" fill="#ED1C24"/>
<path d="M13.0892 10.4718C13.2844 10.2766 13.2844 9.95999 13.0892 9.76473C12.8939 9.56947 12.5773 9.56947 12.3821 9.76473L13.0892 10.4718ZM7.38208 14.7647C7.18682 14.96 7.18682 15.2766 7.38208 15.4718C7.57735 15.6671 7.89393 15.6671 8.08919 15.4718L7.38208 14.7647ZM8.08917 9.76471C7.89391 9.56944 7.57733 9.56944 7.38206 9.76471C7.1868 9.95997 7.1868 10.2766 7.38206 10.4718L8.08917 9.76471ZM12.382 15.4718C12.5773 15.6671 12.8939 15.6671 13.0891 15.4718C13.2844 15.2765 13.2844 14.9599 13.0891 14.7647L12.382 15.4718ZM12.3821 9.76473L7.38208 14.7647L8.08919 15.4718L13.0892 10.4718L12.3821 9.76473ZM7.38206 10.4718L12.382 15.4718L13.0891 14.7647L8.08917 9.76471L7.38206 10.4718Z" fill="#ED1C24"/>
</svg>
