<svg width="30" height="30" viewBox="0 0 30 30" fill="none" xmlns="http://www.w3.org/2000/svg">
<rect width="30" height="30" rx="5" fill="#ED1C24"/>
<path d="M19.0003 6.50012C21.1756 6.51223 22.3536 6.60869 23.122 7.37714C24.0008 8.2559 24.0008 9.67023 24.0008 12.4989V18.4994C24.0008 21.3281 24.0008 22.7424 23.122 23.6212C22.2433 24.4999 20.8289 24.4999 18.0002 24.4999H11.9997C9.17105 24.4999 7.75672 24.4999 6.87796 23.6212C5.99921 22.7424 5.99921 21.3281 5.99921 18.4994V12.4989C5.99921 9.67023 5.99921 8.2559 6.87796 7.37714C7.64641 6.60869 8.82443 6.51223 10.9996 6.50012" stroke="white"/>
<path d="M10.9998 6.00013C10.9998 5.17163 11.6714 4.5 12.4999 4.5H17.5003C18.3288 4.5 19.0005 5.17163 19.0005 6.00013V7.00022C19.0005 7.82872 18.3288 8.50035 17.5003 8.50035H12.4999C11.6714 8.50035 10.9998 7.82872 10.9998 7.00022V6.00013Z" stroke="white"/>
<path d="M17.5002 13.5008L12.4997 18.5012M12.4997 13.5008L17.5001 18.5012" stroke="white" stroke-linecap="round"/>
</svg>
