<svg width="22" height="22" viewBox="0 0 22 22" fill="none" xmlns="http://www.w3.org/2000/svg">
<path d="M5.12735 2.9035C5.12735 4.00807 4.23192 4.9035 3.12735 4.9035C2.02278 4.9035 1.12735 4.00807 1.12735 2.9035C1.12735 1.79893 2.02278 0.903503 3.12735 0.903503C4.23192 0.903503 5.12735 1.79893 5.12735 2.9035Z" stroke="#1C274C" stroke-width="1.5"/>
<path d="M5.12735 18.9035C5.12735 20.0081 4.23192 20.9035 3.12735 20.9035C2.02278 20.9035 1.12735 20.0081 1.12735 18.9035C1.12735 17.7989 2.02278 16.9035 3.12735 16.9035C4.23192 16.9035 5.12735 17.7989 5.12735 18.9035Z" stroke="#1C274C" stroke-width="1.5"/>
<path d="M21.1273 2.9035C21.1273 4.00807 20.2319 4.9035 19.1273 4.9035C18.0227 4.9035 17.1273 4.00807 17.1273 2.9035C17.1273 1.79893 18.0227 0.903503 19.1273 0.903503C20.2319 0.903503 21.1273 1.79893 21.1273 2.9035Z" stroke="#1C274C" stroke-width="1.5"/>
<path d="M21.1273 18.9035C21.1273 20.0081 20.2319 20.9035 19.1273 20.9035C18.0227 20.9035 17.1273 20.0081 17.1273 18.9035C17.1273 17.7989 18.0227 16.9035 19.1273 16.9035C20.2319 16.9035 21.1273 17.7989 21.1273 18.9035Z" stroke="#1C274C" stroke-width="1.5"/>
<path opacity="0.5" d="M5.12735 18.9035H17.1273" stroke="#1C274C" stroke-width="1.5" stroke-linecap="round"/>
<path opacity="0.5" d="M17.1273 3.6535C17.5416 3.6535 17.8773 3.31772 17.8773 2.9035C17.8773 2.48929 17.5416 2.1535 17.1273 2.1535V3.6535ZM5.12735 2.1535C4.71314 2.1535 4.37735 2.48929 4.37735 2.9035C4.37735 3.31772 4.71314 3.6535 5.12735 3.6535V2.1535ZM17.1273 2.1535H5.12735V3.6535H17.1273V2.1535Z" fill="#1C274C"/>
<path opacity="0.5" d="M18.3773 16.9035C18.3773 17.3177 18.7131 17.6535 19.1273 17.6535C19.5415 17.6535 19.8773 17.3177 19.8773 16.9035H18.3773ZM19.8773 4.9035C19.8773 4.48929 19.5415 4.1535 19.1273 4.1535C18.7131 4.1535 18.3773 4.48929 18.3773 4.9035L19.8773 4.9035ZM19.8773 16.9035L19.8773 4.9035L18.3773 4.9035L18.3773 16.9035H19.8773Z" fill="#1C274C"/>
<path opacity="0.5" d="M3.87735 4.9035C3.87735 4.48929 3.54156 4.1535 3.12735 4.1535C2.71314 4.1535 2.37735 4.48929 2.37735 4.9035L3.87735 4.9035ZM2.37735 16.9035C2.37735 17.3177 2.71314 17.6535 3.12735 17.6535C3.54156 17.6535 3.87735 17.3177 3.87735 16.9035H2.37735ZM2.37735 4.9035L2.37735 16.9035H3.87735L3.87735 4.9035L2.37735 4.9035Z" fill="#1C274C"/>
</svg>
