<svg width="17" height="17" viewBox="0 0 17 17" fill="none" xmlns="http://www.w3.org/2000/svg">
<path d="M5.51086 10.6887C5.51086 10.9648 5.73472 11.1887 6.01086 11.1887C6.28701 11.1887 6.51086 10.9648 6.51086 10.6887H5.51086ZM8.00905 5.62803L8.34118 5.25427L8.34118 5.25427L8.00905 5.62803ZM7.76086 6.88241C7.76086 7.15855 7.98472 7.38241 8.26086 7.38241C8.53701 7.38241 8.76086 7.15855 8.76086 6.88241H7.76086ZM8.0715 5.69047L8.44525 5.35834L8.44525 5.35834L8.0715 5.69047ZM4.01268 5.62803L3.68055 5.25427L3.68055 5.25427L4.01268 5.62803ZM3.26086 6.88241C3.26086 7.15855 3.48472 7.38241 3.76086 7.38241C4.03701 7.38241 4.26086 7.15855 4.26086 6.88241H3.26086ZM3.95023 5.69047L3.57648 5.35834L3.57648 5.35834L3.95023 5.69047ZM4.51086 10.1887C4.23472 10.1887 4.01086 10.4125 4.01086 10.6887C4.01086 10.9648 4.23472 11.1887 4.51086 11.1887V10.1887ZM7.51086 11.1887C7.78701 11.1887 8.01086 10.9648 8.01086 10.6887C8.01086 10.4125 7.78701 10.1887 7.51086 10.1887V11.1887ZM5.20461 5.93866H6.01086V4.93866H5.20461V5.93866ZM6.01086 5.93866H6.81711V4.93866H6.01086V5.93866ZM6.51086 10.6887V5.43866H5.51086V10.6887H6.51086ZM6.81711 5.93866C7.15639 5.93866 7.36435 5.93957 7.51599 5.95849C7.65535 5.97587 7.67647 6.00138 7.67693 6.00178L8.34118 5.25427C8.12853 5.06531 7.87997 4.99614 7.63976 4.96618C7.41185 4.93775 7.1304 4.93866 6.81711 4.93866V5.93866ZM8.76086 6.88241C8.76086 6.56913 8.76178 6.28767 8.73335 6.05976C8.70339 5.81956 8.63422 5.57099 8.44525 5.35834L7.69774 6.0226C7.69814 6.02305 7.72366 6.04418 7.74104 6.18353C7.75995 6.33517 7.76086 6.54313 7.76086 6.88241H8.76086ZM7.67693 6.00178C7.68427 6.0083 7.69122 6.01525 7.69774 6.0226L8.44525 5.35834C8.41263 5.32164 8.37788 5.28689 8.34118 5.25427L7.67693 6.00178ZM5.20461 4.93866C4.89133 4.93866 4.60988 4.93775 4.38196 4.96618C4.14176 4.99614 3.8932 5.06531 3.68055 5.25427L4.3448 6.00178C4.34525 6.00138 4.36638 5.97587 4.50574 5.95849C4.65738 5.93957 4.86534 5.93866 5.20461 5.93866V4.93866ZM4.26086 6.88241C4.26086 6.54313 4.26178 6.33517 4.28069 6.18353C4.29807 6.04418 4.32358 6.02305 4.32399 6.0226L3.57648 5.35834C3.38751 5.57099 3.31834 5.81956 3.28838 6.05976C3.25995 6.28767 3.26086 6.56913 3.26086 6.88241H4.26086ZM3.68055 5.25427C3.64384 5.28689 3.60909 5.32164 3.57648 5.35834L4.32399 6.0226C4.33051 6.01526 4.33746 6.00831 4.3448 6.00178L3.68055 5.25427ZM4.51086 11.1887H7.51086V10.1887H4.51086V11.1887Z" fill="#1C274C"/>
<path opacity="0.5" d="M8.26086 2.06366H6.76086C3.93244 2.06366 2.51822 2.06366 1.63954 2.94234C0.760864 3.82102 0.760864 5.23523 0.760864 8.06366C0.760864 10.8921 0.760864 12.3063 1.63954 13.185C2.51822 14.0637 3.93244 14.0637 6.76086 14.0637H8.26086M10.5109 2.06436C12.8466 2.07119 14.0849 2.14502 14.8822 2.94234C15.7609 3.82102 15.7609 5.23523 15.7609 8.06366C15.7609 10.8921 15.7609 12.3063 14.8822 13.185C14.0849 13.9823 12.8466 14.0561 10.5109 14.063" stroke="#1C274C" stroke-linecap="round"/>
<path d="M10.5109 0.56366V15.5637" stroke="#1C274C" stroke-linecap="round"/>
</svg>
